# xmcd
#
# Track frame offsets: 
#        150
#        12867
#        24477
#        37130
#        46210
#        56882
#        67657
#        76702
#        86970
#        95160
#        108707
#        119100
#
# Disc length: 1752 seconds
#
# Revision: 1
# Processed by: cddbd v1.5.2PL0 Copyright (c) Steve Scherf et al.
# Submitted via: ExactAudioCopy v1.1
#
DISCID=a206d60c
DTITLE=Porter Wagoner and The Blackwood Bros. Q. - Porter Wagoner_More G
DTITLE=rand Old Gospel
DYEAR=1999
DGENRE=Country
TTITLE0=When No One Stands Alone
TTITLE1=Rank Strangers To Me
TTITLE2=You´re Not Home Yet
TTITLE3=Lord Build Me A Cabin In Glory
TTITLE4=There´d Be No Need For A Heaven
TTITLE5=When The Soul Never Dies
TTITLE6=Beautiful Wings
TTITLE7=God Walks These Hills With Me
TTITLE8=Day Of Wrath
TTITLE9=God´s Wonderful way
TTITLE10=I´ll Fly Away
TTITLE11=Thirty Pieces Of Silver
EXTD=
EXTT0=
EXTT1=
EXTT2=
EXTT3=
EXTT4=
EXTT5=
EXTT6=
EXTT7=
EXTT8=
EXTT9=
EXTT10=
EXTT11=
PLAYORDER=
